<mxfile host="app.diagrams.net" modified="2023-05-07T17:17:08.424Z" agent="Mozilla/5.0 (Windows NT 10.0; Win64; x64) AppleWebKit/537.36 (KHTML, like Gecko) Chrome/112.0.0.0 Safari/537.36" etag="T-9NX3olJbiCOflw8Cza" version="21.2.9" type="device">
  <diagram name="Page-1" id="uKaATMu-DVtH31tK9rYM">
    <mxGraphModel dx="2284" dy="731" grid="1" gridSize="10" guides="1" tooltips="1" connect="1" arrows="1" fold="1" page="1" pageScale="1" pageWidth="850" pageHeight="1100" math="0" shadow="0">
      <root>
        <mxCell id="0" />
        <mxCell id="1" parent="0" />
        <mxCell id="VGrZxj7x8z85mk20ttrT-3" value="" style="edgeStyle=orthogonalEdgeStyle;rounded=0;orthogonalLoop=1;jettySize=auto;html=1;" edge="1" parent="1" source="VGrZxj7x8z85mk20ttrT-1" target="VGrZxj7x8z85mk20ttrT-2">
          <mxGeometry relative="1" as="geometry">
            <Array as="points">
              <mxPoint x="-210" y="300" />
              <mxPoint x="-90" y="300" />
            </Array>
          </mxGeometry>
        </mxCell>
        <mxCell id="VGrZxj7x8z85mk20ttrT-16" style="edgeStyle=orthogonalEdgeStyle;rounded=0;orthogonalLoop=1;jettySize=auto;html=1;exitX=1;exitY=0.5;exitDx=0;exitDy=0;entryX=0;entryY=0.5;entryDx=0;entryDy=0;" edge="1" parent="1" source="VGrZxj7x8z85mk20ttrT-1" target="VGrZxj7x8z85mk20ttrT-4">
          <mxGeometry relative="1" as="geometry" />
        </mxCell>
        <mxCell id="VGrZxj7x8z85mk20ttrT-1" value="Google New API&amp;nbsp;" style="rounded=1;whiteSpace=wrap;html=1;fillColor=#d5e8d4;strokeColor=#82b366;" vertex="1" parent="1">
          <mxGeometry x="-270" y="350" width="120" height="60" as="geometry" />
        </mxCell>
        <mxCell id="VGrZxj7x8z85mk20ttrT-9" style="edgeStyle=orthogonalEdgeStyle;rounded=0;orthogonalLoop=1;jettySize=auto;html=1;entryX=0.5;entryY=0;entryDx=0;entryDy=0;" edge="1" parent="1" source="VGrZxj7x8z85mk20ttrT-2" target="VGrZxj7x8z85mk20ttrT-4">
          <mxGeometry relative="1" as="geometry" />
        </mxCell>
        <mxCell id="VGrZxj7x8z85mk20ttrT-2" value="Data Cleaning, Stop words. stemming.&amp;nbsp;" style="whiteSpace=wrap;html=1;rounded=1;fillColor=#d5e8d4;strokeColor=#82b366;" vertex="1" parent="1">
          <mxGeometry x="-95" y="270" width="120" height="60" as="geometry" />
        </mxCell>
        <mxCell id="VGrZxj7x8z85mk20ttrT-11" value="" style="edgeStyle=orthogonalEdgeStyle;rounded=0;orthogonalLoop=1;jettySize=auto;html=1;" edge="1" parent="1" source="VGrZxj7x8z85mk20ttrT-4" target="VGrZxj7x8z85mk20ttrT-10">
          <mxGeometry relative="1" as="geometry" />
        </mxCell>
        <mxCell id="VGrZxj7x8z85mk20ttrT-4" value="Open API Key Point Summarization" style="whiteSpace=wrap;html=1;rounded=1;fillColor=#fff2cc;strokeColor=#d6b656;" vertex="1" parent="1">
          <mxGeometry x="80" y="350" width="120" height="60" as="geometry" />
        </mxCell>
        <mxCell id="VGrZxj7x8z85mk20ttrT-6" value="Option 1" style="text;html=1;align=center;verticalAlign=middle;resizable=0;points=[];autosize=1;strokeColor=none;fillColor=none;" vertex="1" parent="1">
          <mxGeometry x="-200" y="270" width="70" height="30" as="geometry" />
        </mxCell>
        <mxCell id="VGrZxj7x8z85mk20ttrT-7" value="Option 2&amp;nbsp;" style="text;html=1;align=center;verticalAlign=middle;resizable=0;points=[];autosize=1;strokeColor=none;fillColor=none;" vertex="1" parent="1">
          <mxGeometry x="-70" y="390" width="70" height="30" as="geometry" />
        </mxCell>
        <mxCell id="VGrZxj7x8z85mk20ttrT-13" value="" style="edgeStyle=orthogonalEdgeStyle;rounded=0;orthogonalLoop=1;jettySize=auto;html=1;" edge="1" parent="1" source="VGrZxj7x8z85mk20ttrT-10" target="VGrZxj7x8z85mk20ttrT-12">
          <mxGeometry relative="1" as="geometry" />
        </mxCell>
        <mxCell id="VGrZxj7x8z85mk20ttrT-10" value="Input Textual Source Clustering" style="whiteSpace=wrap;html=1;rounded=1;fillColor=#fff2cc;strokeColor=#d6b656;" vertex="1" parent="1">
          <mxGeometry x="280" y="350" width="120" height="60" as="geometry" />
        </mxCell>
        <mxCell id="VGrZxj7x8z85mk20ttrT-20" value="" style="edgeStyle=orthogonalEdgeStyle;rounded=0;orthogonalLoop=1;jettySize=auto;html=1;" edge="1" parent="1" source="VGrZxj7x8z85mk20ttrT-12">
          <mxGeometry relative="1" as="geometry">
            <mxPoint x="680" y="380" as="targetPoint" />
          </mxGeometry>
        </mxCell>
        <mxCell id="VGrZxj7x8z85mk20ttrT-24" style="edgeStyle=orthogonalEdgeStyle;rounded=0;orthogonalLoop=1;jettySize=auto;html=1;" edge="1" parent="1" source="VGrZxj7x8z85mk20ttrT-12" target="VGrZxj7x8z85mk20ttrT-22">
          <mxGeometry relative="1" as="geometry" />
        </mxCell>
        <mxCell id="VGrZxj7x8z85mk20ttrT-12" value="Textual Representation of Clusters" style="whiteSpace=wrap;html=1;rounded=1;fillColor=#fff2cc;strokeColor=#d6b656;" vertex="1" parent="1">
          <mxGeometry x="480" y="350" width="120" height="60" as="geometry" />
        </mxCell>
        <mxCell id="VGrZxj7x8z85mk20ttrT-15" style="edgeStyle=orthogonalEdgeStyle;rounded=0;orthogonalLoop=1;jettySize=auto;html=1;" edge="1" parent="1" source="VGrZxj7x8z85mk20ttrT-14" target="VGrZxj7x8z85mk20ttrT-10">
          <mxGeometry relative="1" as="geometry" />
        </mxCell>
        <mxCell id="VGrZxj7x8z85mk20ttrT-14" value="Continued Cluster for Caching" style="shape=cylinder3;whiteSpace=wrap;html=1;boundedLbl=1;backgroundOutline=1;size=15;fillColor=#e1d5e7;strokeColor=#9673a6;" vertex="1" parent="1">
          <mxGeometry x="310" y="470" width="60" height="80" as="geometry" />
        </mxCell>
        <mxCell id="VGrZxj7x8z85mk20ttrT-18" style="edgeStyle=orthogonalEdgeStyle;rounded=0;orthogonalLoop=1;jettySize=auto;html=1;" edge="1" parent="1" source="VGrZxj7x8z85mk20ttrT-17" target="VGrZxj7x8z85mk20ttrT-4">
          <mxGeometry relative="1" as="geometry" />
        </mxCell>
        <mxCell id="VGrZxj7x8z85mk20ttrT-17" value="Article Caching" style="shape=cylinder3;whiteSpace=wrap;html=1;boundedLbl=1;backgroundOutline=1;size=15;fillColor=#e1d5e7;strokeColor=#9673a6;" vertex="1" parent="1">
          <mxGeometry x="110" y="470" width="60" height="80" as="geometry" />
        </mxCell>
        <mxCell id="VGrZxj7x8z85mk20ttrT-21" value="Front End" style="rounded=1;whiteSpace=wrap;html=1;fillColor=#dae8fc;strokeColor=#6c8ebf;" vertex="1" parent="1">
          <mxGeometry x="680" y="350" width="120" height="60" as="geometry" />
        </mxCell>
        <mxCell id="VGrZxj7x8z85mk20ttrT-25" style="edgeStyle=orthogonalEdgeStyle;rounded=0;orthogonalLoop=1;jettySize=auto;html=1;" edge="1" parent="1" source="VGrZxj7x8z85mk20ttrT-22" target="VGrZxj7x8z85mk20ttrT-21">
          <mxGeometry relative="1" as="geometry" />
        </mxCell>
        <mxCell id="VGrZxj7x8z85mk20ttrT-22" value="Long Tail Sentiment of Stocks/ Trigger Event" style="rounded=1;whiteSpace=wrap;html=1;fillColor=#fff2cc;strokeColor=#d6b656;" vertex="1" parent="1">
          <mxGeometry x="480" y="170" width="120" height="60" as="geometry" />
        </mxCell>
        <mxCell id="VGrZxj7x8z85mk20ttrT-23" value="&lt;font style=&quot;font-size: 15px;&quot;&gt;Trigger Event identification and processing&lt;/font&gt;" style="text;html=1;align=center;verticalAlign=middle;resizable=0;points=[];autosize=1;strokeColor=#d6b656;fillColor=#fff2cc;" vertex="1" parent="1">
          <mxGeometry x="185" y="285" width="310" height="30" as="geometry" />
        </mxCell>
      </root>
    </mxGraphModel>
  </diagram>
</mxfile>
